<?xml version="1.0" standalone="no"?>
<!DOCTYPE svg PUBLIC "-//W3C//DTD SVG 20010904//EN"
 "http://www.w3.org/TR/2001/REC-SVG-20010904/DTD/svg10.dtd">
<svg version="1.0" xmlns="http://www.w3.org/2000/svg"
 width="1024.000000pt" height="1024.000000pt" viewBox="0 0 1024.000000 1024.000000"
 preserveAspectRatio="xMidYMid meet">

<g transform="translate(0.000000,1024.000000) scale(0.100000,-0.100000)"
fill="#000000" stroke="none">
<path d="M5575 9079 c-71 -11 -362 -53 -645 -95 -283 -42 -665 -97 -849 -124
-378 -55 -386 -58 -446 -155 l-30 -48 -3 -1301 c-2 -964 0 -1311 9 -1341 13
-47 137 -373 150 -395 5 -9 9 649 9 1529 0 849 1 1545 3 1547 2 2 118 20 258
39 140 20 405 58 589 85 184 27 511 73 725 101 l390 52 135 -12 c215 -18 619
-68 960 -117 173 -25 448 -63 610 -83 162 -21 309 -44 325 -52 l30 -14 3
-1733 c1 -952 -2 -1732 -6 -1732 -5 0 -17 10 -28 22 -30 34 -174 96 -281 121
l-98 23 -6 200 c-4 109 -5 200 -4 202 1 1 14 -2 29 -7 25 -10 218 -51 238 -51
7 0 9 38 4 113 -3 61 -7 673 -8 1359 l-1 1247 -26 5 c-31 6 -275 40 -446 61
-187 23 -477 38 -615 32 -244 -12 -380 -47 -611 -158 l-146 -71 -87 51 c-340
194 -765 220 -1576 95 -91 -14 -182 -29 -202 -35 l-37 -9 -1 -1421 -1 -1420
57 -25 c31 -14 77 -39 101 -55 49 -34 156 -85 253 -120 66 -23 384 -222 494
-308 32 -25 64 -50 70 -55 8 -5 55 9 127 37 120 48 312 107 414 127 l61 12
104 -64 105 -63 -70 -10 -70 -10 -26 -55 c-34 -70 -58 -92 -140 -124 l-66 -26
-373 2 -372 3 -32 95 c-19 59 -53 131 -87 186 -31 50 -60 100 -63 112 -6 19
-15 22 -61 22 -71 0 -85 -6 -85 -41 0 -15 -5 -74 -12 -130 l-11 -102 -78 7
c-43 3 -84 9 -91 11 -7 3 -14 24 -15 48 0 23 -15 76 -33 117 -17 41 -34 99
-37 128 -4 39 -10 52 -22 52 -20 0 -114 -43 -151 -70 -15 -11 -38 -20 -50 -20
-19 0 -21 -4 -15 -27 4 -16 12 -64 19 -107 l13 -79 -126 7 c-69 4 -200 11
-291 16 -91 6 -392 10 -669 9 -451 -1 -505 1 -513 15 -5 9 -20 16 -33 16 -15
0 -31 9 -40 23 -22 35 -52 250 -80 584 -44 521 -60 658 -78 681 -7 9 -12 180
-15 486 l-5 473 -111 58 c-183 96 -465 271 -508 316 -10 10 -37 31 -60 48 -24
16 -51 39 -60 50 -17 20 -17 21 11 21 28 0 96 -47 131 -90 17 -21 188 -127
330 -203 93 -50 248 -109 262 -100 12 7 10 333 -2 333 -13 0 -494 226 -672
316 -154 78 -208 118 -208 153 0 21 2 20 38 -8 20 -17 91 -56 157 -87 196 -93
659 -305 677 -311 16 -5 18 5 18 113 l0 119 -68 27 c-88 35 -490 216 -568 256
-70 35 -60 12 -89 227 -15 111 -20 243 -9 233 3 -4 12 -80 20 -170 8 -89 16
-173 19 -184 3 -15 30 -35 82 -62 84 -43 538 -238 580 -248 l26 -7 -8 139 c-4
76 -11 148 -15 160 -22 56 -121 127 -485 345 -132 79 -250 153 -262 166 -13
12 -25 18 -27 14 -17 -27 -209 -878 -229 -1015 -13 -92 -17 -87 115 -162 42
-25 81 -50 87 -58 8 -9 0 -25 -34 -65 -25 -29 -45 -61 -45 -70 0 -26 35 -66
69 -80 32 -14 41 -35 41 -95 l0 -39 -26 24 c-15 13 -67 84 -116 157 -81 121
-90 131 -109 122 -11 -6 -19 -15 -17 -19 2 -4 69 -106 149 -227 127 -190 375
-590 536 -864 l50 -85 11 -134 c7 -74 11 -136 9 -137 -2 -2 -28 27 -59 65 -62
76 -122 112 -218 129 -60 11 -150 5 -150 -10 0 -31 123 -503 149 -569 6 -18
34 -35 100 -64 77 -33 91 -43 91 -62 0 -20 -4 -23 -28 -17 -39 10 -114 40
-172 69 l-49 25 -31 102 c-77 251 -157 448 -183 448 -42 0 -135 -26 -154 -42
-25 -23 -47 -105 -41 -149 3 -16 1 -32 -4 -35 -5 -3 -40 0 -79 6 -76 13 -90 9
-72 -19 8 -13 6 -39 -8 -107 -29 -131 -36 -386 -14 -484 9 -41 20 -102 24
-135 15 -109 81 -205 164 -240 24 -10 35 -20 31 -28 -4 -7 5 -1 19 12 35 32
38 81 5 81 -37 0 -122 45 -141 74 -22 33 -73 187 -82 247 l-7 44 46 -3 c41 -4
45 -6 52 -35 11 -55 40 -100 97 -154 30 -29 76 -62 101 -75 46 -22 46 -22 46
-74 0 -28 5 -66 11 -84 10 -27 13 -30 21 -16 5 10 6 35 3 58 -7 40 -6 41 16
34 44 -13 333 -84 470 -115 151 -35 180 -49 163 -78 -8 -13 -34 -21 -100 -30
-49 -7 -169 -27 -266 -44 -97 -17 -187 -29 -200 -26 -13 4 -58 35 -101 71 -82
68 -112 76 -101 27 14 -54 36 -81 100 -119 l66 -40 -35 -17 c-42 -20 -78 -55
-56 -55 8 0 43 9 79 21 138 43 404 75 820 99 230 14 843 29 970 24 52 -2 220
-6 373 -9 390 -8 846 -42 924 -69 21 -7 38 -19 38 -27 0 -28 -168 -34 -405
-16 -358 28 -676 40 -1060 39 -354 0 -948 -21 -1197 -42 -139 -12 -532 -66
-540 -74 -10 -9 46 -26 87 -26 22 0 44 -6 50 -12 24 -29 171 -331 213 -438 25
-63 59 -164 75 -225 37 -132 77 -333 69 -341 -3 -4 -34 11 -69 33 -43 27 -78
60 -110 104 -26 35 -96 128 -154 207 l-107 143 -41 -6 c-23 -3 -53 -8 -68 -11
-14 -3 -29 -1 -32 5 -4 5 20 12 58 16 84 9 126 34 126 75 0 62 -55 155 -114
191 -42 26 -121 25 -164 -1 -20 -13 -41 -38 -53 -65 l-20 -45 -77 0 c-47 0
-83 -5 -90 -12 -38 -38 17 -128 174 -286 52 -51 94 -98 94 -103 0 -5 11 -9 25
-9 31 0 45 -30 45 -98 1 -26 7 -76 15 -112 25 -114 24 -116 -45 -136 -33 -9
-60 -19 -60 -23 0 -3 11 -23 25 -43 14 -21 50 -92 80 -159 66 -149 102 -204
189 -291 73 -73 121 -97 156 -78 11 6 45 44 74 83 69 93 82 104 94 80 23 -42
133 -383 127 -393 -3 -5 -39 -10 -78 -10 -78 0 -90 5 -160 68 -22 18 -41 31
-44 29 -2 -3 7 -36 20 -74 52 -143 64 -248 82 -693 8 -195 17 -415 21 -488 l7
-132 -66 0 c-61 0 -67 2 -71 23 -9 42 -57 652 -65 832 -9 170 -11 184 -40 245
l-30 65 -1 -97 c0 -54 7 -171 15 -260 19 -217 45 -568 45 -616 l0 -39 -92 -7
c-247 -17 -265 -19 -228 -27 19 -4 103 -15 185 -24 83 -9 154 -20 158 -25 5
-4 7 -16 5 -26 -3 -18 -15 -19 -193 -16 -189 4 -593 -13 -670 -27 -40 -8 -39
-8 25 -15 36 -3 231 -10 434 -14 257 -5 370 -10 373 -18 6 -17 -37 -22 -223
-29 -93 -3 -198 -9 -234 -12 -61 -6 -63 -7 -30 -15 19 -4 107 -15 195 -23 88
-9 201 -21 250 -27 132 -17 5274 -28 5358 -12 36 7 34 19 -5 34 -50 18 -1564
24 -3918 16 -789 -3 -1430 -4 -1425 -2 6 3 372 7 815 10 443 3 904 10 1025 16
143 7 908 10 2180 8 1078 -1 2039 1 2135 4 119 4 142 3 70 -2 -58 -4 -150 -13
-205 -19 -55 -6 -173 -15 -263 -20 -148 -9 -205 -21 -187 -39 3 -3 544 -5
1203 -5 1028 1 1218 4 1347 17 248 27 539 68 559 78 70 38 -151 60 -579 59
l-341 -1 2 38 c1 20 2 40 3 43 0 4 47 9 104 13 130 9 297 25 320 32 43 13 -7
19 -211 24 l-217 5 -3 455 c-1 250 -6 458 -11 463 -5 5 -18 0 -30 -12 -21 -21
-21 -27 -21 -486 l0 -465 -29 0 c-16 0 -36 -3 -45 -6 -11 -4 -16 0 -17 12 -1
11 -5 1 -10 -21 -15 -73 -16 -72 52 -67 55 4 61 3 57 -14 -3 -16 -14 -19 -70
-22 l-67 -3 -3 448 c-3 504 -3 499 -76 530 -40 17 -115 15 -492 -8 -148 -9
-178 -14 -195 -30 -42 -41 -17 -44 347 -45 276 -1 342 -4 349 -15 5 -8 9 -219
9 -471 l0 -456 -47 -6 c-27 -3 -243 -8 -480 -12 l-433 -7 -1 119 c0 66 -4 366
-8 668 -9 538 -9 549 -30 569 -15 15 -24 18 -32 10 -8 -8 -7 -164 1 -567 7
-306 9 -560 5 -564 -10 -10 -568 -3 -578 7 -19 19 26 26 221 36 205 11 221 15
222 51 0 7 -62 9 -199 6 l-198 -4 24 75 c19 58 29 76 46 81 63 15 173 121 220
211 l15 30 6 -35 c3 -19 11 -93 17 -165 6 -71 14 -133 18 -138 12 -12 70 -26
75 -18 3 4 -1 43 -9 87 -7 43 -21 167 -30 274 -9 107 -23 251 -31 320 -16 135
-54 857 -54 1034 0 107 0 108 23 102 12 -3 83 -6 157 -6 l136 0 22 -342 c30
-458 40 -685 52 -1210 6 -243 13 -444 15 -447 3 -3 16 5 28 17 21 22 22 28 20
211 l-3 188 128 6 c70 4 226 7 347 8 213 0 274 6 246 23 -7 5 -172 11 -366 14
l-353 5 -6 61 c-4 34 -9 241 -11 461 -3 220 -9 515 -15 655 -5 140 -10 265
-10 277 0 21 2 21 198 20 170 -1 211 2 301 21 148 33 242 75 313 141 117 108
176 215 343 616 48 116 129 302 180 415 124 274 184 439 239 655 53 214 68
258 102 302 23 30 29 33 79 32 67 -2 139 31 166 75 25 41 25 129 1 176 -26 48
-122 96 -227 115 -210 37 -434 2 -574 -91 -181 -121 -441 -456 -711 -918 -108
-184 -156 -286 -199 -413 -95 -288 -75 -480 65 -613 91 -86 125 -89 198 -20
43 40 75 92 183 292 72 134 176 333 230 443 105 214 138 258 211 287 24 9 42
14 40 10 -295 -596 -458 -916 -505 -987 -128 -194 -265 -267 -472 -250 -46 3
-109 14 -140 24 -54 17 -200 107 -288 178 -53 42 -91 58 -173 73 -109 19 -107
17 -72 53 17 18 41 55 54 82 29 65 29 180 -1 360 -32 184 -37 332 -17 490 9
72 16 156 16 187 0 31 3 59 8 61 12 8 189 -40 246 -66 64 -29 94 -68 130 -163
15 -39 37 -80 49 -91 21 -19 119 -63 140 -63 14 0 0 3670 -14 3725 -11 41 -53
108 -86 138 -11 10 -35 22 -54 28 -54 15 -372 61 -1104 159 -374 50 -720 97
-770 105 -115 19 -188 17 -350 -6z m1435 -629 c229 -24 526 -59 555 -65 20 -4
20 -11 20 -1280 0 -1029 -2 -1275 -12 -1275 -16 0 -184 37 -205 45 -11 5 -19
32 -28 103 -6 53 -18 125 -26 160 -19 83 -19 82 19 72 77 -20 107 -21 107 -6
0 10 -23 20 -75 31 l-75 17 -10 41 c-6 23 -15 55 -21 71 -5 16 -8 31 -6 32 2
2 32 -5 68 -16 73 -23 115 -25 125 -8 12 19 -21 34 -108 47 -45 7 -91 17 -101
22 -10 6 -37 40 -61 77 -54 85 -131 155 -197 178 -35 13 -54 26 -60 43 -5 13
-32 48 -59 78 -28 30 -50 58 -50 61 0 10 92 47 110 44 72 -10 434 -42 476 -42
41 0 54 4 54 15 0 8 -1 15 -2 16 -13 4 -426 38 -469 38 l-55 1 4 63 c2 34 6
63 7 65 2 2 92 -4 202 -13 109 -9 221 -15 248 -13 48 3 62 15 33 30 -16 8
-315 28 -418 28 l-75 0 -23 58 c-39 96 -39 96 -6 88 81 -20 147 -26 343 -32
181 -6 213 -5 209 7 -3 8 -25 17 -54 21 -81 12 -518 27 -534 18 -8 -4 -43 -3
-77 3 l-62 11 -12 54 c-6 29 -27 83 -46 120 -19 36 -37 80 -39 97 l-4 31 98
-3 c53 -2 189 -12 302 -23 113 -10 254 -21 313 -24 99 -5 108 -4 105 12 -2 12
-17 19 -58 24 -85 12 -616 48 -697 48 -62 0 -72 3 -78 19 -9 29 -72 81 -131
108 -100 45 -313 37 -384 -15 -42 -31 -70 -81 -70 -126 0 -38 -4 -43 -48 -71
-27 -17 -64 -54 -86 -88 -27 -39 -42 -53 -48 -45 -4 7 -8 208 -8 445 l0 433
43 27 c102 65 313 141 452 163 90 14 465 3 685 -20z m-1705 -4 c11 -7 47 -16
80 -20 130 -16 380 -126 391 -173 3 -12 4 -224 3 -470 -4 -407 -6 -450 -21
-473 -23 -32 -23 -57 2 -98 20 -32 20 -51 20 -797 0 -508 -3 -765 -10 -765 -6
0 -43 24 -83 53 -39 29 -85 61 -102 72 -16 10 -43 32 -60 47 -16 16 -57 45
-90 65 l-60 36 -161 -7 -161 -7 -16 25 c-10 14 -17 30 -17 35 0 6 38 28 85 50
65 31 85 46 85 61 0 19 -6 20 -87 20 -77 0 -85 -2 -63 -13 33 -17 36 -41 7
-60 -23 -15 -25 -15 -20 1 6 26 -28 51 -91 68 -47 12 -86 13 -234 4 -235 -13
-454 -28 -524 -36 -53 -5 -90 -26 -74 -41 3 -4 122 3 264 15 323 27 552 37
552 24 0 -5 -30 -35 -67 -65 -38 -31 -104 -92 -148 -136 l-80 -81 -115 0
c-114 -1 -237 -13 -443 -45 -60 -9 -112 -14 -115 -10 -4 4 -8 600 -9 1325 l-3
1317 38 6 c97 16 510 57 707 71 121 9 243 18 270 20 98 7 329 -5 350 -18z
m-4336 -406 c12 -31 44 -89 71 -130 27 -41 47 -76 45 -79 -6 -5 -93 54 -143
96 l-33 28 12 78 c6 43 15 75 19 70 4 -4 17 -33 29 -63z m5472 -340 c86 -29
109 -46 109 -82 0 -25 -2 -27 -18 -19 -11 6 -52 18 -92 27 -119 27 -265 15
-372 -31 -15 -6 -15 -3 2 33 33 68 86 90 223 91 64 1 104 -5 148 -19z m30
-123 c55 -24 115 -95 159 -190 49 -104 56 -161 24 -204 -31 -42 -83 -73 -120
-73 -30 0 -41 9 -90 69 -68 83 -124 116 -230 136 -84 17 -168 57 -191 92 -43
66 55 158 196 184 64 11 211 3 252 -14z m-5246 -153 c43 -31 399 -219 490
-259 87 -37 95 -43 76 -54 -23 -14 -125 24 -265 99 -225 120 -368 219 -398
275 -9 16 -3 14 28 -9 21 -17 53 -40 69 -52z m5124 -206 c5 -18 13 -64 17
-103 3 -38 13 -82 20 -96 20 -40 67 -75 126 -94 29 -10 57 -21 61 -25 4 -3
-26 -33 -68 -65 -42 -32 -90 -78 -106 -101 -39 -57 -61 -57 -88 1 -12 25 -21
52 -21 60 0 23 -32 18 -70 -10 -44 -33 -56 -32 -76 8 -25 49 -45 67 -74 67
-28 0 -28 0 -14 38 18 51 18 126 -1 142 -12 10 -15 10 -18 -1 -2 -8 -10 -30
-17 -49 -6 -19 -12 -44 -11 -55 0 -11 -11 -30 -26 -42 l-27 -22 26 -12 c16 -7
28 -22 31 -38 4 -16 16 -32 31 -39 14 -6 38 -29 53 -51 31 -45 48 -49 114 -26
50 18 66 14 78 -17 11 -29 -2 -54 -31 -64 -34 -10 -126 -83 -133 -104 -3 -11
1 -33 10 -50 9 -17 23 -66 31 -108 23 -121 27 -111 24 69 -1 72 2 89 19 110
l20 24 12 -32 13 -31 25 34 c56 74 294 277 364 310 36 17 37 17 59 -3 13 -12
53 -35 91 -51 105 -48 97 -57 -82 -98 -156 -36 -347 -129 -409 -199 -43 -49
-64 -115 -102 -310 -54 -279 -60 -292 -158 -341 -43 -21 -95 -52 -117 -69 -38
-30 -78 -55 -89 -55 -8 0 -1 1398 7 1406 14 14 62 -20 63 -45 1 -12 6 -27 13
-34 6 -6 11 -23 11 -38 0 -22 5 -27 29 -31 31 -5 41 9 41 60 0 15 6 22 20 22
28 0 25 18 -5 32 -35 16 -28 38 20 65 48 28 76 25 157 -17 52 -27 57 -28 62
-12 3 10 19 26 36 35 24 15 30 25 30 53 0 43 15 44 29 2z m-366 5 c-13 -2 -35
-2 -50 0 -16 2 -5 4 22 4 28 0 40 -2 28 -4z m819 -86 c11 -21 1 -137 -11 -137
-4 0 -13 11 -19 25 -9 19 -19 25 -43 25 -24 0 -30 4 -25 15 7 18 -2 18 -34 0
-14 -8 -34 -14 -45 -15 -17 0 -17 2 5 17 45 29 88 75 101 105 l12 29 24 -23
c14 -13 29 -31 35 -41z m-5369 -153 c27 -26 115 -173 266 -440 151 -269 191
-364 153 -364 -9 0 -92 136 -167 275 -21 39 -73 131 -115 205 -116 203 -188
350 -171 350 5 0 20 -11 34 -26z m5519 -344 c150 -58 208 -159 263 -460 53
-287 60 -372 60 -765 0 -232 -5 -433 -14 -538 -14 -163 -15 -168 -35 -162 -12
4 -66 12 -121 18 l-99 12 -24 75 c-44 140 -192 854 -192 927 0 17 7 62 16 99
21 93 34 254 27 351 -6 82 -23 107 -23 34 0 -47 -43 -219 -77 -310 -106 -282
-368 -800 -448 -887 -100 -107 -350 -45 -675 167 -145 94 -197 119 -247 119
-49 0 -19 108 53 189 l39 43 35 -21 c19 -11 41 -21 48 -21 10 0 168 -59 485
-182 20 -8 40 -33 68 -84 64 -116 73 -112 35 13 -44 140 -45 122 32 498 23
110 50 250 62 310 44 234 111 412 173 459 40 31 153 79 262 111 105 31 223 33
297 5z m-5287 -493 c66 -31 145 -69 175 -84 l55 -28 6 -250 c4 -137 8 -286 10
-330 l4 -80 -45 -3 -45 -3 -33 140 c-18 77 -41 150 -50 161 -9 12 -40 33 -67
48 l-50 27 -37 185 c-51 251 -56 281 -49 277 3 -2 60 -29 126 -60z m-859 -93
c19 -9 34 -21 34 -28 0 -6 11 -12 25 -12 29 -2 146 -61 228 -115 32 -22 62
-39 67 -39 15 0 37 -42 45 -85 20 -121 77 -261 149 -370 26 -38 49 -81 53 -95
3 -14 10 -31 16 -37 20 -26 -6 -11 -71 40 -37 30 -78 59 -90 66 -28 15 -45 52
-66 142 -8 35 -28 104 -45 154 -17 49 -31 102 -31 116 0 14 -9 38 -20 52 -48
61 -249 159 -278 135 -18 -15 -62 -103 -62 -123 0 -9 14 -42 30 -75 17 -33 30
-62 30 -65 0 -3 -29 -5 -65 -5 l-65 0 0 68 c0 66 9 135 31 240 12 59 25 64 85
36z m4131 -144 c6 -31 54 -80 78 -80 36 0 18 -22 -57 -71 -46 -30 -96 -66
-114 -81 -26 -23 -41 -27 -104 -30 l-73 -3 104 -29 c96 -28 121 -30 342 -37
131 -4 241 -10 244 -12 2 -3 -9 -23 -25 -45 -16 -22 -37 -61 -46 -86 l-17 -46
-57 29 c-31 16 -72 41 -91 55 -40 30 -61 35 -35 9 17 -17 14 -18 -57 -26 -41
-4 -99 -11 -129 -16 l-55 -8 45 -3 45 -2 -55 -18 c-30 -11 -48 -19 -39 -19 8
-1 48 10 87 24 102 36 163 36 236 1 45 -22 61 -36 72 -63 17 -39 12 -53 -19
-54 -12 0 -89 -24 -172 -52 l-150 -52 -3 -37 c-6 -72 -19 -69 -164 39 -132 99
-408 273 -589 373 -100 56 -131 78 -124 90 4 7 58 18 165 34 180 28 417 24
525 -9 27 -8 51 -13 53 -11 2 2 -11 14 -27 26 -17 12 -31 30 -31 40 0 12 33
47 83 88 45 38 91 79 101 91 27 29 45 26 53 -9z m488 -65 c43 -28 55 -40 42
-43 -10 -2 -31 1 -46 6 -17 6 -34 6 -42 1 -17 -11 -216 -12 -222 -1 -11 18 13
46 54 63 71 30 141 22 214 -26z m35 -96 c74 -12 120 -36 205 -109 63 -54 123
-90 150 -90 21 0 131 -75 138 -95 4 -8 4 -15 2 -15 -3 0 -60 18 -127 39 -312
100 -480 151 -497 151 -9 0 -26 6 -37 14 -18 14 -17 17 31 65 27 28 54 51 60
51 5 0 39 -5 75 -11z m619 -31 c-5 -24 -17 -65 -25 -91 l-16 -49 -42 6 c-22 4
-65 12 -95 19 l-55 12 65 42 c50 33 168 102 175 103 1 0 -2 -19 -7 -42z m-846
25 c-7 -2 -21 -2 -30 0 -10 3 -4 5 12 5 17 0 24 -2 18 -5z m-4281 -142 c93
-89 199 -244 180 -263 -13 -13 -36 13 -122 132 -31 42 -73 99 -96 126 -63 78
-67 84 -56 84 6 0 48 -36 94 -79z m4114 64 c18 -13 16 -14 -21 -15 -22 0 -64
-3 -92 -6 -36 -5 -53 -3 -53 4 0 28 133 42 166 17z m1628 -253 l-6 -59 156
-306 157 -307 -220 0 c-200 0 -221 2 -230 18 -8 14 -39 153 -55 242 -3 21 -1
-24 8 -159 1 -9 -8 -17 -19 -19 -27 -6 -35 -21 -28 -57 7 -39 37 -72 79 -85
39 -13 45 -38 12 -44 -13 -2 -106 -20 -208 -39 -102 -20 -304 -63 -449 -97
-145 -33 -361 -81 -480 -106 -119 -25 -235 -54 -258 -65 -89 -43 -103 -84
-178 -544 -71 -432 -58 -407 -214 -403 l-105 3 -15 -30 c-11 -23 -15 -105 -19
-397 -5 -351 -4 -369 14 -389 10 -12 18 -31 16 -43 -4 -30 -50 -168 -83 -254
-35 -89 -36 -112 -4 -142 14 -13 25 -26 25 -29 0 -3 -32 -21 -71 -40 -51 -24
-97 -59 -159 -118 -48 -46 -94 -83 -101 -83 -28 -1 -95 -38 -151 -84 l-57 -46
-208 0 c-210 0 -233 -4 -233 -37 0 -10 43 -13 203 -13 l202 -1 -28 -24 c-28
-25 -31 -25 -203 -25 l-174 0 0 -29 c0 -17 6 -31 16 -35 9 -3 90 -6 180 -6 92
0 164 -4 164 -9 0 -5 28 -14 63 -19 52 -8 30 -10 -143 -12 -113 -1 -216 -5
-230 -9 -35 -10 424 -26 735 -26 504 1 2355 26 2437 33 93 9 -966 21 -1857 23
-514 1 -561 2 -475 14 62 9 119 24 163 44 63 28 77 31 165 30 l97 -2 -85 -9
c-140 -15 -154 -18 -141 -31 9 -9 248 -12 934 -15 507 -1 1172 -6 1477 -10
l555 -7 0 -25 0 -25 -300 2 c-165 1 -292 0 -282 -3 9 -3 17 -9 17 -13 0 -4
127 -11 281 -14 254 -5 301 -9 288 -21 -2 -2 -173 -9 -379 -15 -291 -9 -469
-8 -795 1 -476 15 -1590 17 -2070 5 -176 -5 -500 -8 -720 -8 -220 0 -441 -5
-490 -10 -61 -7 -102 -8 -125 -1 l-35 10 42 1 c23 1 70 7 105 15 35 7 124 19
198 26 74 6 141 15 148 18 11 6 13 283 12 1559 l-1 1552 183 1 c180 0 222 4
483 49 203 35 313 41 729 41 220 0 429 4 463 9 137 20 234 95 301 233 20 43
42 77 49 78 6 0 60 -22 120 -49 140 -63 231 -85 324 -79 89 7 131 34 208 137
l56 73 5 -38 6 -39 8 45 c5 25 40 102 81 175 40 72 82 151 94 178 12 26 24 47
26 47 3 0 2 -26 -1 -58z m-1353 -178 c-134 -29 -275 -76 -360 -119 -49 -24
-92 -49 -96 -55 -11 -18 -35 -11 -35 10 0 12 7 20 16 20 9 0 56 18 104 39 47
22 140 56 205 75 65 20 121 39 124 41 2 3 27 5 55 4 l51 -1 -64 -14z m-3401
-87 c0 -40 -23 -77 -48 -77 l-22 0 25 50 c27 54 45 64 45 27z m258 -356 c13
-7 22 -14 20 -17 -3 -2 -85 -9 -184 -15 -98 -6 -183 -15 -189 -21 -17 -16 62
-74 125 -91 63 -18 95 -46 86 -75 -6 -17 -143 -122 -160 -122 -3 0 -8 22 -12
49 l-6 49 -82 22 c-44 12 -118 32 -164 46 -77 23 -84 28 -100 62 -9 20 -25 50
-35 65 -11 16 -17 30 -15 33 3 2 86 11 184 18 218 17 499 16 532 -3z m2087
-73 c16 -16 -62 -28 -120 -18 -33 5 -64 10 -70 11 -5 1 3 4 20 8 38 8 161 8
170 -1z m-1247 -104 l52 -7 0 -1543 0 -1543 -32 -6 c-18 -3 -100 -4 -183 -3
l-150 3 -3 1553 -2 1552 132 0 c73 0 157 -3 186 -6z m438 0 l21 -6 1 -1534 2
-1534 -124 0 -123 0 -6 278 c-4 152 -7 845 -7 1540 l0 1262 108 0 c59 0 116
-3 128 -6z m-1130 -21 c-9 -34 -75 -338 -81 -379 -7 -45 -58 -106 -73 -88 -15
16 -63 163 -72 218 -6 36 -4 75 6 127 8 41 14 86 14 101 0 31 11 34 133 37 70
1 78 -1 73 -16z m320 -980 c-3 -544 -6 -1219 -6 -1501 l0 -514 -32 8 c-18 4
-78 6 -133 6 -110 -2 -131 4 -120 36 6 20 12 21 103 19 80 -2 97 1 97 13 0 15
-52 32 -139 45 -38 6 -38 7 -33 42 4 19 9 38 12 42 4 3 38 -10 76 -30 l69 -36
0 205 c0 113 5 325 11 471 5 146 9 355 7 464 l-3 198 -64 -41 c-35 -23 -88
-64 -117 -92 -30 -28 -56 -49 -58 -47 -10 10 77 122 154 197 l85 82 -3 710 -2
710 51 0 51 0 -6 -987z m3800 880 c22 -29 16 -59 -21 -103 -31 -37 -35 -48
-35 -100 0 -32 7 -89 16 -126 10 -44 12 -70 5 -77 -19 -19 -40 2 -46 46 l-7
45 -126 -86 c-170 -116 -252 -137 -637 -162 -93 -6 -182 -16 -197 -22 -39 -15
-88 -72 -174 -203 -94 -142 -164 -284 -249 -500 -65 -165 -195 -528 -195 -543
0 -19 -53 -172 -60 -172 -11 0 -20 38 -20 82 0 78 134 536 225 768 116 294
315 590 427 635 23 9 80 20 127 26 47 5 131 14 186 20 156 17 299 47 435 91
157 51 253 96 245 117 -3 8 -8 33 -11 56 -5 37 -2 45 40 93 48 56 49 59 46
105 -2 31 7 35 26 10z m-4771 -31 l80 -28 0 -119 c0 -86 -3 -120 -12 -120 -6
0 -48 35 -93 78 -66 62 -81 82 -77 100 3 12 9 43 12 70 4 26 8 47 9 47 0 -1
37 -13 81 -28z m235 -117 c4 -3 16 -37 25 -76 23 -91 17 -159 -28 -314 -19
-66 -40 -153 -47 -192 -7 -40 -16 -73 -20 -73 -16 0 -38 542 -26 625 l8 47 40
-6 c23 -4 44 -9 48 -11z m-263 -151 c70 -68 73 -72 73 -117 0 -35 7 -58 26
-87 27 -40 27 -42 35 -303 4 -144 11 -282 14 -307 8 -54 17 -63 -127 127
l-108 142 -35 178 c-20 98 -50 216 -66 263 -46 129 -46 133 -8 194 l32 55 45
-37 c25 -20 79 -69 119 -108z m863 14 c36 -56 23 -75 -102 -148 -59 -35 -157
-136 -227 -235 -74 -103 -92 -139 -126 -244 -33 -103 -32 -142 18 -406 45
-237 61 -452 54 -690 -4 -99 -9 -191 -12 -205 -4 -20 -2 -19 9 6 8 17 24 75
34 128 11 53 22 100 25 103 6 5 182 -13 224 -23 54 -14 78 -219 48 -418 -10
-67 -21 -125 -26 -130 -4 -4 -32 1 -63 13 -42 15 -253 61 -283 61 -2 0 -3 -11
-3 -24 0 -34 23 -53 85 -71 29 -9 58 -21 63 -28 8 -9 22 -244 27 -441 0 -22
-746 1 -768 23 -5 5 73 12 172 16 175 7 181 8 185 29 2 11 9 73 16 136 6 63
17 167 25 230 17 136 18 277 5 495 -15 250 -29 668 -32 922 -2 208 -1 234 14
245 26 20 37 59 49 182 l12 114 27 -8 c15 -4 34 -4 42 1 9 5 48 51 87 103 118
155 216 237 326 272 58 18 78 17 95 -8z m4526 -158 c158 -13 257 -31 394 -71
123 -36 175 -61 190 -90 7 -11 10 -22 8 -24 -2 -2 -60 5 -128 16 -368 56 -893
48 -1290 -21 -181 -31 -196 -25 -92 42 80 51 144 74 285 102 247 50 425 62
633 46z m-1031 -148 c-5 -4 -27 -26 -47 -50 -34 -38 -38 -48 -38 -96 0 -85 33
-116 153 -141 21 -4 27 -11 27 -33 0 -37 -36 -352 -60 -526 -20 -147 -45 -364
-105 -921 -19 -181 -38 -349 -41 -372 l-6 -43 -84 0 -84 0 -2 388 c-2 517 1
693 14 780 10 65 17 82 63 145 53 73 74 123 67 165 -5 33 -26 27 -67 -20 -47
-55 -92 -143 -110 -216 -13 -54 -24 -517 -25 -1079 l0 -163 -177 0 c-98 0
-242 3 -320 7 l-142 6 -6 56 c-6 56 -38 165 -68 232 l-16 35 109 -4 c105 -4
108 -4 123 19 9 13 22 53 31 89 18 79 277 835 466 1360 50 140 99 277 108 304
8 26 20 50 26 52 10 3 187 31 211 33 7 0 7 -2 0 -7z m1661 -128 c56 -7 106
-36 89 -53 -6 -6 -130 -13 -300 -18 -361 -10 -1272 -10 -1281 0 -17 17 19 27
136 41 131 15 434 34 630 40 156 4 663 -3 726 -10z m-6267 -80 c68 -61 90
-107 112 -234 22 -123 23 -148 9 -134 -31 31 -107 171 -135 249 -18 50 -39
107 -49 128 -23 52 -2 49 63 -9z m5888 -96 c6 -7 15 -96 22 -198 13 -202 46
-605 61 -740 5 -47 14 -159 20 -250 5 -91 13 -187 15 -215 l6 -50 -43 46 c-24
26 -88 84 -143 129 -95 78 -165 158 -165 187 0 7 14 19 30 28 17 9 30 19 30
22 0 4 -22 73 -50 153 -93 272 -250 820 -250 872 0 23 20 25 256 27 151 1 204
-2 211 -11z m-6289 -47 c40 -28 116 -64 221 -105 97 -39 182 -88 215 -125 25
-28 18 -33 -28 -20 -21 6 -35 13 -32 16 7 7 -37 32 -228 129 -173 88 -198 103
-190 115 7 13 12 11 42 -10z m5356 -13 c8 -13 35 -84 61 -158 48 -138 221
-609 295 -803 l41 -109 -60 -55 c-34 -30 -61 -62 -61 -72 0 -9 18 -34 39 -54
41 -39 94 -50 119 -25 24 24 22 -1 -7 -73 -16 -41 -41 -126 -56 -189 -44 -194
-47 -202 -67 -208 -10 -2 -18 -8 -18 -12 0 -9 -36 -22 -123 -45 -43 -11 -114
-15 -272 -15 -118 0 -215 2 -215 4 0 2 13 98 30 213 16 114 43 312 60 438 55
412 151 1087 161 1136 9 42 14 49 35 49 13 0 30 -9 38 -22z m-4722 -80 c35
-46 90 -121 121 -167 l57 -84 0 -131 0 -131 -41 75 c-22 41 -66 109 -97 150
-31 41 -60 80 -64 86 -17 23 -59 284 -45 284 2 0 33 -37 69 -82z m3206 -163
c2 -2 -8 -40 -23 -85 -14 -46 -46 -162 -71 -259 -53 -206 -72 -263 -87 -258
-30 10 -35 164 -16 440 l13 177 90 -6 c50 -4 92 -8 94 -9z m-3239 -100 c88
-95 186 -277 207 -384 8 -36 -12 -42 -121 -34 l-83 6 -17 71 c-24 98 -83 283
-106 329 -11 20 -25 38 -32 39 -11 1 56 13 94 16 9 1 35 -18 58 -43z m214
-537 c4 -41 2 -65 -5 -69 -6 -4 -63 -10 -127 -13 -64 -4 -150 -9 -192 -12
l-76 -5 -6 72 c-3 40 -4 76 -1 81 3 4 94 8 203 8 l198 0 6 -62z m517 -8 c108
-14 110 -15 110 -60 0 -21 -5 -42 -11 -45 -12 -8 -240 24 -252 35 -5 4 -5 24
-2 44 7 34 10 36 44 36 20 0 70 -5 111 -10z m-867 -189 c18 -7 26 -19 30 -48
7 -40 -17 -320 -27 -330 -3 -4 -6 27 -6 68 0 41 -7 124 -15 184 -20 152 -22
141 18 126z m4406 -797 c2 -2 1 -10 -2 -19 -5 -13 -34 -15 -194 -15 -103 0
-292 -3 -420 -7 -211 -6 -233 -5 -239 10 -3 10 -3 24 0 33 6 15 43 16 429 9
232 -4 424 -9 426 -11z m579 -21 c3 -23 1 -23 -95 -23 -54 0 -149 3 -210 7
-101 5 -113 8 -113 25 0 17 11 18 208 16 206 -3 207 -3 210 -25z m2422 -103
c0 -5 -16 -10 -35 -10 -19 0 -35 5 -35 10 0 6 16 10 35 10 19 0 35 -4 35 -10z
m-4558 -7 c-40 -2 -103 -2 -140 0 -37 2 -4 3 73 3 77 0 107 -2 67 -3z m-3215
-179 c-3 -3 -12 -4 -19 -1 -8 3 -5 6 6 6 11 1 17 -2 13 -5z"/>
<path d="M6405 8310 c-12 -19 14 -30 70 -30 100 0 777 -69 946 -96 38 -6 39
-6 39 25 0 24 -5 32 -22 36 -13 3 -158 19 -323 36 -345 35 -697 49 -710 29z"/>
<path d="M6163 8113 c-113 -14 70 -33 322 -33 115 0 339 -14 814 -51 141 -11
178 -6 149 19 -41 33 -1105 87 -1285 65z"/>
<path d="M6137 7953 c-19 -18 3 -23 116 -23 67 0 185 -5 262 -10 308 -23 439
-31 635 -40 113 -5 226 -12 253 -16 42 -5 47 -4 47 14 0 22 3 22 -412 47 -570
35 -885 45 -901 28z"/>
<path d="M6465 7780 c3 -5 20 -12 38 -15 76 -12 655 -58 795 -62 133 -5 152
-3 152 10 0 19 -26 24 -175 32 -60 3 -210 15 -333 26 -239 20 -487 26 -477 9z"/>
<path d="M6780 7436 c11 -11 87 -20 280 -35 313 -25 383 -26 378 -8 -3 6 -29
15 -59 19 -81 10 -481 38 -551 38 -54 0 -60 -2 -48 -14z"/>
<path d="M6985 6769 c-4 -6 -5 -12 -4 -13 7 -6 392 -56 427 -56 31 0 53 22 39
37 -4 3 -68 11 -144 18 -251 23 -311 26 -318 14z"/>
<path d="M7155 6573 c6 -6 66 -20 135 -31 110 -19 126 -20 139 -7 29 28 -2 37
-146 42 -89 4 -134 2 -128 -4z"/>
<path d="M4835 8313 c-105 -7 -524 -55 -618 -70 -62 -10 -101 -21 -104 -30 -3
-8 -4 -15 -2 -17 6 -6 383 31 594 59 105 13 244 29 310 36 66 6 124 15 130 20
8 8 -195 10 -310 2z"/>
<path d="M4620 8085 c-80 -7 -149 -10 -153 -8 -4 3 -87 2 -182 -2 l-175 -8 0
-48 0 -47 33 8 c64 18 566 70 767 80 148 8 237 8 319 0 81 -8 117 -8 124 -1 8
8 7 15 -1 24 -18 17 -540 19 -732 2z"/>
<path d="M5487 8053 c-6 -34 -1 -43 23 -43 24 0 29 9 23 43 -7 37 -39 37 -46
0z"/>
<path d="M5508 7946 c-12 -9 -18 -27 -18 -55 0 -34 3 -41 19 -41 23 0 35 41
24 82 -7 23 -10 25 -25 14z"/>
<path d="M4765 7919 c-77 -5 -239 -16 -360 -26 -121 -9 -237 -17 -257 -18 -34
0 -38 -3 -38 -27 0 -15 3 -29 8 -31 4 -3 39 1 77 8 179 34 822 78 1060 72 105
-2 145 13 65 25 -60 9 -380 7 -555 -3z"/>
<path d="M5486 7764 c-13 -33 -6 -63 15 -69 30 -10 41 7 34 49 -8 38 -37 51
-49 20z"/>
<path d="M4810 7760 c-58 -5 -170 -13 -250 -19 -364 -26 -442 -34 -447 -48 -3
-8 -3 -16 0 -19 3 -3 158 6 344 21 411 32 757 47 878 39 88 -6 90 -6 72 12
-16 17 -37 19 -255 21 -130 0 -284 -3 -342 -7z"/>
<path d="M5328 7673 c6 -2 18 -2 25 0 6 3 1 5 -13 5 -14 0 -19 -2 -12 -5z"/>
<path d="M4680 7594 c-148 -10 -433 -36 -502 -46 -67 -9 -78 -13 -78 -30 0
-17 5 -19 43 -13 96 13 538 46 759 57 192 10 257 9 350 -2 62 -7 141 -15 176
-17 45 -4 62 -9 62 -19 0 -8 9 -14 20 -14 16 0 20 7 20 30 0 17 -1 30 -2 31
-37 14 -709 32 -848 23z"/>
<path d="M4780 7430 c-174 -15 -379 -29 -523 -36 -128 -6 -149 -9 -157 -25 -7
-12 -7 -20 0 -24 12 -7 128 -1 480 26 467 36 514 38 663 39 153 0 196 13 80
23 -87 9 -433 6 -543 -3z"/>
<path d="M5480 7410 c0 -16 2 -30 4 -30 2 0 11 -3 20 -6 13 -5 16 1 16 30 0
29 -4 36 -20 36 -16 0 -20 -7 -20 -30z"/>
<path d="M4655 7255 c-266 -19 -529 -44 -549 -51 -22 -9 -14 -30 10 -27 10 1
213 14 449 29 457 28 632 28 830 -1 55 -8 104 -15 108 -15 5 0 7 10 5 23 -3
20 -12 23 -93 35 -139 19 -542 23 -760 7z"/>
<path d="M4830 7103 c-259 -13 -423 -31 -439 -48 -15 -16 -7 -17 149 -11 91 4
250 11 353 16 177 8 324 4 538 -18 79 -8 99 -6 99 8 0 13 -28 19 -161 36 -128
15 -407 24 -539 17z"/>
<path d="M4905 6923 c-261 -13 -742 -58 -782 -74 -35 -13 -28 -29 12 -29 20 0
151 11 293 25 141 13 376 31 522 40 259 14 291 13 503 -11 64 -8 78 7 25 25
-71 25 -335 36 -573 24z"/>
<path d="M4935 6744 c-104 -6 -302 -17 -440 -24 -365 -19 -389 -21 -393 -44
-7 -33 11 -36 133 -21 66 8 206 19 310 25 105 6 258 15 341 21 185 13 421 12
529 -1 139 -17 130 -18 130 10 0 24 -2 25 -95 31 -208 14 -333 15 -515 3z"/>
<path d="M4800 6583 c-30 -2 -162 -12 -292 -23 -130 -11 -262 -20 -293 -20
-59 0 -115 -21 -115 -44 0 -8 7 -12 18 -10 9 2 160 15 335 29 393 32 585 32
875 4 122 -12 225 -19 229 -15 15 15 -19 27 -132 46 -198 33 -429 45 -625 33z"/>
<path d="M5186 6401 c-8 -12 -3 -14 183 -46 80 -14 153 -27 163 -31 22 -7 37
24 17 36 -40 25 -351 60 -363 41z"/>
<path d="M4200 6376 c-77 -10 -85 -13 -88 -34 -3 -22 -2 -23 55 -17 122 12
265 25 274 25 5 0 9 9 9 20 0 18 -6 20 -82 19 -46 -1 -121 -7 -168 -13z"/>
<path d="M4665 6260 c-346 -14 -557 -32 -562 -47 -14 -35 12 -37 259 -17 173
13 337 19 568 19 312 0 331 -1 473 -27 81 -16 150 -28 152 -28 3 0 5 9 5 19 0
16 -13 22 -67 35 -199 44 -490 61 -828 46z"/>
<path d="M6300 7125 c0 -17 5 -25 13 -22 6 2 12 12 12 22 0 10 -6 20 -12 23
-8 2 -13 -6 -13 -23z"/>
<path d="M4440 5650 c-18 -6 -8 -8 37 -8 35 0 60 4 57 9 -6 11 -59 10 -94 -1z"/>
<path d="M4583 5633 c9 -2 23 -2 30 0 6 3 -1 5 -18 5 -16 0 -22 -2 -12 -5z"/>
<path d="M4618 5603 c7 -3 16 -2 19 1 4 3 -2 6 -13 5 -11 0 -14 -3 -6 -6z"/>
<path d="M4553 5583 c9 -2 25 -2 35 0 9 3 1 5 -18 5 -19 0 -27 -2 -17 -5z"/>
<path d="M4478 5573 c6 -2 18 -2 25 0 6 3 1 5 -13 5 -14 0 -19 -2 -12 -5z"/>
<path d="M4628 5573 c12 -2 32 -2 45 0 12 2 2 4 -23 4 -25 0 -35 -2 -22 -4z"/>
<path d="M4396 5562 c-3 -5 8 -6 25 -4 16 2 29 6 29 8 0 8 -49 4 -54 -4z"/>
<path d="M4797 5560 c10 -8 101 -27 163 -34 l45 -6 -47 19 c-44 17 -177 35
-161 21z"/>
<path d="M4538 5553 c12 -2 32 -2 45 0 12 2 2 4 -23 4 -25 0 -35 -2 -22 -4z"/>
<path d="M4633 5553 c15 -2 37 -2 50 0 12 2 0 4 -28 4 -27 0 -38 -2 -22 -4z"/>
<path d="M4421 5529 c-13 -5 -22 -12 -19 -14 3 -3 20 1 39 9 37 17 19 21 -20
5z"/>
<path d="M4506 5504 c-5 -13 -3 -14 6 -7 7 6 20 13 28 16 10 4 8 6 -6 6 -12 1
-25 -6 -28 -15z"/>
<path d="M4592 5488 c-24 -5 -42 -12 -39 -14 5 -5 107 16 107 22 0 6 -17 4
-68 -8z"/>
<path d="M4858 5473 c6 -2 18 -2 25 0 6 3 1 5 -13 5 -14 0 -19 -2 -12 -5z"/>
<path d="M4990 5407 c-25 -7 -57 -20 -70 -30 -29 -21 -15 -22 20 -2 14 8 52
14 88 15 46 0 63 3 60 13 -6 17 -45 18 -98 4z"/>
<path d="M4700 5390 c-8 -5 -10 -10 -5 -10 6 0 17 5 25 10 8 5 11 10 5 10 -5
0 -17 -5 -25 -10z"/>
<path d="M2159 8863 c-14 -15 -53 -71 -86 -123 -111 -177 -103 -156 -102 -271
0 -57 4 -126 7 -153 l7 -48 130 96 c151 111 234 158 325 181 36 9 112 32 169
51 160 53 143 39 -51 -43 -43 -18 -45 -23 -20 -46 12 -11 34 -16 62 -15 25 1
59 -4 76 -12 48 -21 79 -7 105 47 l22 46 -16 101 c-10 56 -17 115 -17 132 0
17 -6 36 -12 41 -7 6 -125 15 -263 22 -137 7 -264 14 -280 17 -24 4 -35 -1
-56 -23z"/>
<path d="M2417 8415 c-65 -13 -143 -35 -174 -50 -68 -31 -178 -111 -227 -165
l-36 -40 0 -125 c0 -97 3 -125 13 -125 7 0 69 37 138 82 226 149 424 258 253
140 -114 -79 -388 -304 -398 -326 -4 -12 -5 -86 -2 -166 9 -200 10 -201 138
-115 221 148 749 447 764 433 2 -3 -67 -47 -153 -98 -87 -51 -270 -171 -408
-265 -137 -94 -268 -182 -290 -195 -22 -13 -43 -29 -48 -34 -4 -6 -6 -221 -5
-477 l3 -466 30 -9 30 -9 27 -270 c14 -148 38 -367 52 -485 15 -118 34 -278
42 -355 9 -77 18 -142 21 -145 2 -2 34 4 71 14 117 33 181 41 203 28 26 -17
97 -21 589 -33 234 -6 439 -12 455 -12 24 -2 31 2 33 20 5 34 -29 59 -186 141
-171 89 -364 154 -522 177 -128 19 -455 17 -500 -3 -19 -8 27 -11 197 -11 207
-1 231 -3 355 -30 122 -27 301 -83 321 -101 5 -4 -67 12 -160 36 -172 44 -213
49 -483 59 -129 4 -141 3 -110 -9 22 -8 102 -15 220 -19 112 -3 216 -12 265
-22 86 -18 270 -75 343 -106 80 -34 37 -31 -80 6 -189 60 -356 86 -543 86 -88
0 -182 -4 -209 -8 -32 -5 28 -8 170 -9 235 0 338 -13 484 -59 42 -13 93 -27
115 -32 78 -16 -98 -20 -360 -9 -324 14 -467 13 -533 -3 -33 -8 -57 -10 -63
-4 -5 5 -16 83 -25 174 -8 90 -26 250 -39 354 -14 105 -34 276 -45 382 -11
106 -24 222 -30 259 -6 37 -9 69 -6 71 3 3 69 7 149 10 109 5 168 2 245 -11
213 -36 445 -146 563 -267 57 -59 64 -46 14 29 -74 109 -292 251 -435 283
-110 24 -107 17 -49 111 l51 83 -6 70 c-7 88 -39 205 -59 217 -8 4 -13 16 -10
26 2 10 -4 29 -15 42 l-20 24 90 95 c171 181 293 373 333 526 25 92 30 256 11
344 -32 150 -117 276 -231 341 -47 27 -61 30 -131 29 -44 0 -132 -11 -197 -24z
m133 -1423 c12 -45 -4 -67 -134 -173 -55 -46 -131 -115 -168 -152 -65 -66 -68
-68 -112 -65 l-45 3 55 70 c124 156 172 213 258 302 l89 94 24 -22 c12 -13 27
-38 33 -57z m65 -222 c6 -43 3 -59 -19 -103 -14 -29 -37 -63 -50 -76 -24 -22
-28 -23 -127 -15 l-102 9 57 39 c31 21 56 42 56 47 0 9 159 149 171 149 4 0
10 -23 14 -50z"/>
<path d="M2465 6294 c-135 -18 -175 -28 -175 -42 0 -12 11 -13 58 -8 31 3 153
9 271 12 201 6 212 8 185 22 -21 12 -66 16 -169 18 -77 1 -153 0 -170 -2z"/>
<path d="M2370 6103 c-57 -9 -70 -14 -70 -29 0 -14 8 -16 50 -10 27 4 111 7
187 7 109 0 163 -5 258 -25 65 -14 121 -23 124 -20 13 13 -24 25 -99 34 -46 5
-86 13 -89 18 -17 26 -57 32 -193 31 -79 -1 -154 -3 -168 -6z"/>
<path d="M2800 6101 c0 -10 35 -21 65 -20 14 0 10 4 -14 14 -38 17 -51 19 -51
6z"/>
<path d="M2345 6023 c-22 -2 -44 -8 -49 -13 -6 -6 49 -7 137 -3 124 5 167 3
289 -16 79 -13 161 -31 183 -41 22 -10 56 -21 75 -25 19 -4 57 -16 84 -27 42
-16 47 -17 36 -3 -23 28 -71 47 -220 88 -139 38 -152 39 -320 42 -96 1 -193 1
-215 -2z"/>
<path d="M2361 5959 c-35 -4 -66 -11 -69 -14 -14 -14 17 -16 140 -7 155 12
313 -1 478 -39 69 -16 174 -51 188 -62 7 -5 15 -7 19 -4 20 21 -252 104 -410
126 -89 12 -251 12 -346 0z"/>
<path d="M2378 5901 c-133 -12 -96 -19 99 -19 103 -1 202 -5 218 -11 24 -7 13
-10 -60 -10 -169 -3 -364 -28 -344 -45 2 -2 47 2 99 9 53 7 158 16 235 20 77
4 150 11 161 16 13 5 50 1 95 -11 41 -10 92 -20 114 -23 l40 -5 -30 13 c-46
20 -171 44 -318 60 -138 15 -181 16 -309 6z"/>
<path d="M2808 5843 c7 -3 16 -2 19 1 4 3 -2 6 -13 5 -11 0 -14 -3 -6 -6z"/>
<path d="M2433 5797 c-95 -7 -133 -13 -133 -22 0 -10 24 -11 103 -6 260 15
506 2 606 -34 23 -8 41 -10 41 -5 0 24 -316 81 -430 78 -30 0 -115 -5 -187
-11z"/>
<path d="M2480 5730 c-41 -5 -99 -12 -127 -15 -29 -4 -53 -10 -53 -15 0 -10
95 -6 200 9 41 6 104 10 140 11 70 0 262 -23 346 -41 28 -7 58 -9 65 -7 20 7
-51 35 -119 47 -83 15 -365 21 -452 11z"/>
<path d="M2440 5670 c-47 -4 -98 -12 -115 -18 l-30 -10 31 -1 c16 -1 91 4 165
10 126 10 271 5 454 -17 70 -9 53 2 -35 21 -85 19 -338 27 -470 15z"/>
<path d="M3008 5623 c7 -3 16 -2 19 1 4 3 -2 6 -13 5 -11 0 -14 -3 -6 -6z"/>
<path d="M2413 5613 c-29 -2 -53 -8 -53 -13 0 -5 74 -8 173 -7 168 2 417 -23
530 -54 75 -20 48 0 -35 26 -131 42 -402 63 -615 48z"/>
<path d="M2386 5549 c-69 -17 -54 -21 54 -14 185 12 524 -20 635 -61 14 -5 17
-4 10 3 -46 48 -580 103 -699 72z"/>
<path d="M7936 2644 c-9 -8 -16 -19 -16 -24 0 -17 12 -40 21 -40 17 0 49 40
49 60 0 24 -32 27 -54 4z"/>
<path d="M8364 2625 c-8 -20 42 -92 68 -101 23 -7 85 3 93 15 10 17 -16 67
-44 84 -37 22 -109 23 -117 2z"/>
<path d="M1423 1273 c15 -2 37 -2 50 0 12 2 0 4 -28 4 -27 0 -38 -2 -22 -4z"/>
<path d="M1510 1271 c8 -5 170 -16 360 -25 190 -9 381 -18 425 -21 44 -3 328
-12 630 -20 303 -8 728 -20 945 -26 238 -7 502 -8 665 -4 350 10 1489 21 2490
23 435 1 914 7 1065 12 474 16 774 32 800 42 24 9 24 10 6 20 -14 8 -177 9
-565 3 -300 -5 -861 -9 -1246 -9 -385 -1 -1337 -5 -2115 -10 -993 -6 -1542 -5
-1840 3 -578 15 -1639 23 -1620 12z"/>
<path d="M4000 1120 l-125 -5 80 -8 c378 -36 2441 -37 3345 0 l195 8 -175 6
c-212 8 -3144 7 -3320 -1z"/>
</g>
</svg>
